<svg width="512" height="512" viewBox="0 0 512 512" fill="none" xmlns="http://www.w3.org/2000/svg">
<g clip-path="url(#clip0_1_2)">
<path fill-rule="evenodd" clip-rule="evenodd" d="M61.2654 163.16V139.957L-2.87852 163.798H-3V187.609H-2.87852L61.2654 211.451V188.217L28.3734 175.643L61.2654 163.13V163.16Z" fill="#F7DD43"/>
<path fill-rule="evenodd" clip-rule="evenodd" d="M432.795 210.296V187.092L465.657 174.61L432.795 162.127V138.923L496.848 162.765H497V186.606H496.848L432.795 210.326V210.296ZM405.279 106.092L367.619 227H389.972L427.632 106.092H405.279Z" fill="#F7DD43"/>
<path fill-rule="evenodd" clip-rule="evenodd" d="M155.508 136.767C161.886 143.753 165.227 152.985 164.832 162.431V213.94H142.479V167.169C142.752 161.945 141.082 156.843 137.802 152.773C134.704 149.159 130.118 147.154 125.35 147.367C111.348 147.367 104.333 157.086 104.333 176.493V213.94H81.9795V129.387H104.333V137.01C111.44 130.116 121.067 126.441 130.968 126.866C140.201 126.471 149.13 130.086 155.508 136.767V136.767Z" fill="#F7DD43"/>
<path fill-rule="evenodd" clip-rule="evenodd" d="M193.32 93.0328V213.94H215.673V93.0328H193.32Z" fill="#F7DD43"/>
<path fill-rule="evenodd" clip-rule="evenodd" d="M342.076 213.94H323.428L305.145 164.132L286.679 213.94H268.031L236.688 129.235H260.59L278.206 179.894L296.368 129.235H313.831L331.993 180.046L349.608 129.235H373.51L342.137 213.94H342.076Z" fill="#F7DD43"/>
<path d="M63.5809 422.298C43.8938 422.298 23.2106 418.567 7 409.583V251.071C22.9567 242.341 43.6399 238.356 63.5809 238.356C83.5218 238.356 103.717 242.087 119.654 251.071V311.89H79.518V270.504C74.7916 268.512 69.0495 267.77 63.3269 267.77C57.6044 267.77 52.3506 268.512 47.3703 270.504V390.15C52.0967 392.142 57.5849 392.884 63.3269 392.884C69.069 392.884 74.5377 392.142 79.518 390.15V348.784H119.654V409.603C103.951 418.333 83.2679 422.063 63.5809 422.317V422.298Z" fill="#F7DD43"/>
<path d="M194.927 422.297C173.736 422.297 153.306 417.805 137.096 408.587V251.813C153.053 242.848 173.501 238.356 194.927 238.356C216.352 238.356 236.293 242.594 252.25 251.813V408.587C236.547 417.805 215.864 422.044 194.927 422.297ZM212.133 271.011C207.407 269.019 201.665 268.023 194.692 268.023C187.72 268.023 182.232 269.019 177.486 271.011V389.407C182.212 391.654 187.954 392.65 194.692 392.65C201.43 392.65 207.153 391.654 212.133 389.407V271.011Z" fill="#F7DD43"/>
<path d="M322.286 354.994H311.564V420.051H270.94V240.602H322.286C346.72 240.602 365.157 245.582 379.61 255.797V339.799C365.411 349.78 346.7 354.994 322.286 354.994ZM339.239 271.5C335.509 268.766 330.509 267.516 322.033 267.516H311.056V328.081H322.033C330.255 328.081 335.235 326.831 339.239 324.35V271.5Z" fill="#F7DD43"/>
<path d="M464.588 420.051V354.994H434.687V420.051H394.316V251.559C409.023 242.828 429.706 238.356 449.647 238.356C469.588 238.356 490.017 242.848 504.724 251.559V420.051H464.588ZM464.588 269.508C460.35 267.515 455.116 266.519 449.628 266.519C444.139 266.519 438.905 267.515 434.667 269.508V326.577H464.569V269.508H464.588Z" fill="#F7DD43"/>
</g>
<defs>
<clipPath id="clip0_1_2">
<rect width="512" height="512" fill="white"/>
</clipPath>
</defs>
</svg>
